# xmcd
#
# Track frame offsets:
#  150
#  13231
#  28354
#  44211
#  60580
#  79375
#  95443
#  108769
#  129919
#  143915
#  160691
#  180716
#
# Disc length: 2641 seconds
#
# Revision: 0
# Processed by: cddbd v1.5.2PL0 Copyright (c) Steve Scherf et al.
# Submitted via: AltoMP3_Maker 3.0
#
DISCID=a30a4f0c
DTITLE=Chuck Ragan - Los Feliz
DYEAR=1900
DGENRE=
TTITLE0=Open Up and Wail
TTITLE1=The Boat
TTITLE2=Do You Pray
TTITLE3=Valentine
TTITLE4=Congratulations Joe
TTITLE5=God Deciding
TTITLE6=Fixin' To Die
TTITLE7=Symmetry
TTITLE8=Dream Of A Miner's Child
TTITLE9=It's What You Will
TTITLE10=For Broken Ears
TTITLE11=California Burritos
EXTD=
EXTT0=
EXTT1=
EXTT2=
EXTT3=
EXTT4=
EXTT5=
EXTT6=
EXTT7=
EXTT8=
EXTT9=
EXTT10=
EXTT11=
PLAYORDER=
